<svg xmlns="http://www.w3.org/2000/svg" width="40" height="64" viewBox="0 0 40 64" shape-rendering="crispEdges">
  <!-- Placeholder shore pine (3/4 view): a windswept, bushy pine bent by sea winds. Trunk base at (20, 60). -->
  <ellipse cx="20" cy="60" rx="11" ry="3" fill="#000000" fill-opacity="0.2"/>
  <polygon points="18,60 23,60 24,40 27,26 24,26 21,40" fill="#5e3d24"/>
  <rect x="22" y="32" width="9" height="2" fill="#5e3d24"/>
  <ellipse cx="13" cy="40" rx="9" ry="5" fill="#2c5236"/>
  <ellipse cx="30" cy="33" rx="9" ry="5" fill="#30593b"/>
  <ellipse cx="22" cy="24" rx="13" ry="7" fill="#37643f"/>
  <ellipse cx="27" cy="14" rx="10" ry="6" fill="#3f7047"/>
  <g fill="#4d8455">
    <rect x="9" y="38" width="6" height="2"/><rect x="27" y="31" width="6" height="2"/>
    <rect x="16" y="21" width="8" height="2"/><rect x="24" y="11" width="6" height="2"/>
  </g>
  <g fill="#7a5a34"><rect x="12" y="43" width="2" height="2"/><rect x="31" y="36" width="2" height="2"/></g>
</svg>
