<svg xmlns="http://www.w3.org/2000/svg" width="34" height="34" viewBox="-1 -1 34 34" shape-rendering="crispEdges">
  <!-- outline: made by tools/outline_sprites.py from the drawing in "art" -->
  <g id="outline"><g transform="translate(-1 0)">
  
  <polygon points="2,28 10,10 22,8 30,28" fill="#414558"/><ellipse cx="16" cy="24" rx="7" ry="5" fill="#6b7283"/><ellipse cx="16" cy="25" rx="3" ry="3" fill="#191d30"/>
  <rect x="26" y="4" width="1" height="12" fill="#2b3449"/><rect x="22" y="4" width="8" height="5" fill="#71191a"/>
</g><g transform="translate(1 0)">
  
  <polygon points="2,28 10,10 22,8 30,28" fill="#414558"/><ellipse cx="16" cy="24" rx="7" ry="5" fill="#6b7283"/><ellipse cx="16" cy="25" rx="3" ry="3" fill="#191d30"/>
  <rect x="26" y="4" width="1" height="12" fill="#2b3449"/><rect x="22" y="4" width="8" height="5" fill="#71191a"/>
</g><g transform="translate(0 -1)">
  
  <polygon points="2,28 10,10 22,8 30,28" fill="#414558"/><ellipse cx="16" cy="24" rx="7" ry="5" fill="#6b7283"/><ellipse cx="16" cy="25" rx="3" ry="3" fill="#191d30"/>
  <rect x="26" y="4" width="1" height="12" fill="#2b3449"/><rect x="22" y="4" width="8" height="5" fill="#71191a"/>
</g><g transform="translate(0 1)">
  
  <polygon points="2,28 10,10 22,8 30,28" fill="#414558"/><ellipse cx="16" cy="24" rx="7" ry="5" fill="#6b7283"/><ellipse cx="16" cy="25" rx="3" ry="3" fill="#191d30"/>
  <rect x="26" y="4" width="1" height="12" fill="#2b3449"/><rect x="22" y="4" width="8" height="5" fill="#71191a"/>
</g></g>
  <g id="art" data-size="32 32" data-box="0 0 32 32">
  <!-- placeholder: quiet den area: a snow cave in the rock with a "keep away" marker -->
  <polygon points="2,28 10,10 22,8 30,28" fill="#8a8e96"/><ellipse cx="16" cy="24" rx="7" ry="5" fill="#f4f8fc"/><ellipse cx="16" cy="25" rx="3" ry="3" fill="#2a2e36"/>
  <rect x="26" y="4" width="1" height="12" fill="#5a6470"/><rect x="22" y="4" width="8" height="5" fill="#e85a4a"/>
</g>
</svg>
