<svg xmlns="http://www.w3.org/2000/svg" width="66" height="66" viewBox="-1 -1 66 66" shape-rendering="crispEdges">
  <!-- outline: made by tools/outline_sprites.py from the drawing in "art" -->
  <g id="outline"><g transform="translate(-1 0)">
  
  <ellipse cx="32" cy="40" rx="13" ry="8" fill="#655b4c"/>
  <ellipse cx="32" cy="39" rx="9" ry="5" fill="#6c6253"/>
  <g fill="#324a6e">
    <rect x="6" y="18" width="52" height="2"/><rect x="6" y="24" width="52" height="2"/>
    <rect x="6" y="52" width="52" height="2"/><rect x="6" y="58" width="52" height="2"/>
    <rect x="7" y="18" width="2" height="42"/><rect x="55" y="18" width="2" height="42"/>
  </g>
  <g fill="#1d3458">
    <rect x="5" y="14" width="4" height="14"/><rect x="18" y="14" width="4" height="14"/><rect x="30" y="14" width="4" height="14"/>
    <rect x="42" y="14" width="4" height="14"/><rect x="55" y="14" width="4" height="14"/>
    <rect x="5" y="48" width="4" height="14"/><rect x="18" y="48" width="4" height="14"/><rect x="30" y="48" width="4" height="14"/>
    <rect x="42" y="48" width="4" height="14"/><rect x="55" y="48" width="4" height="14"/>
    <rect x="5" y="31" width="4" height="12"/><rect x="55" y="31" width="4" height="12"/>
  </g>
  <rect x="20" y="3" width="24" height="11" fill="#351d15"/>
  <rect x="21" y="4" width="22" height="9" fill="#716b65"/>
  <rect x="28" y="6" width="6" height="5" fill="#24431f"/>
  <rect x="34" y="7" width="2" height="3" fill="#335027"/>
  <rect x="27" y="6" width="1" height="1" fill="#24431f"/><rect x="27" y="10" width="1" height="1" fill="#24431f"/>
</g><g transform="translate(1 0)">
  
  <ellipse cx="32" cy="40" rx="13" ry="8" fill="#655b4c"/>
  <ellipse cx="32" cy="39" rx="9" ry="5" fill="#6c6253"/>
  <g fill="#324a6e">
    <rect x="6" y="18" width="52" height="2"/><rect x="6" y="24" width="52" height="2"/>
    <rect x="6" y="52" width="52" height="2"/><rect x="6" y="58" width="52" height="2"/>
    <rect x="7" y="18" width="2" height="42"/><rect x="55" y="18" width="2" height="42"/>
  </g>
  <g fill="#1d3458">
    <rect x="5" y="14" width="4" height="14"/><rect x="18" y="14" width="4" height="14"/><rect x="30" y="14" width="4" height="14"/>
    <rect x="42" y="14" width="4" height="14"/><rect x="55" y="14" width="4" height="14"/>
    <rect x="5" y="48" width="4" height="14"/><rect x="18" y="48" width="4" height="14"/><rect x="30" y="48" width="4" height="14"/>
    <rect x="42" y="48" width="4" height="14"/><rect x="55" y="48" width="4" height="14"/>
    <rect x="5" y="31" width="4" height="12"/><rect x="55" y="31" width="4" height="12"/>
  </g>
  <rect x="20" y="3" width="24" height="11" fill="#351d15"/>
  <rect x="21" y="4" width="22" height="9" fill="#716b65"/>
  <rect x="28" y="6" width="6" height="5" fill="#24431f"/>
  <rect x="34" y="7" width="2" height="3" fill="#335027"/>
  <rect x="27" y="6" width="1" height="1" fill="#24431f"/><rect x="27" y="10" width="1" height="1" fill="#24431f"/>
</g><g transform="translate(0 -1)">
  
  <ellipse cx="32" cy="40" rx="13" ry="8" fill="#655b4c"/>
  <ellipse cx="32" cy="39" rx="9" ry="5" fill="#6c6253"/>
  <g fill="#324a6e">
    <rect x="6" y="18" width="52" height="2"/><rect x="6" y="24" width="52" height="2"/>
    <rect x="6" y="52" width="52" height="2"/><rect x="6" y="58" width="52" height="2"/>
    <rect x="7" y="18" width="2" height="42"/><rect x="55" y="18" width="2" height="42"/>
  </g>
  <g fill="#1d3458">
    <rect x="5" y="14" width="4" height="14"/><rect x="18" y="14" width="4" height="14"/><rect x="30" y="14" width="4" height="14"/>
    <rect x="42" y="14" width="4" height="14"/><rect x="55" y="14" width="4" height="14"/>
    <rect x="5" y="48" width="4" height="14"/><rect x="18" y="48" width="4" height="14"/><rect x="30" y="48" width="4" height="14"/>
    <rect x="42" y="48" width="4" height="14"/><rect x="55" y="48" width="4" height="14"/>
    <rect x="5" y="31" width="4" height="12"/><rect x="55" y="31" width="4" height="12"/>
  </g>
  <rect x="20" y="3" width="24" height="11" fill="#351d15"/>
  <rect x="21" y="4" width="22" height="9" fill="#716b65"/>
  <rect x="28" y="6" width="6" height="5" fill="#24431f"/>
  <rect x="34" y="7" width="2" height="3" fill="#335027"/>
  <rect x="27" y="6" width="1" height="1" fill="#24431f"/><rect x="27" y="10" width="1" height="1" fill="#24431f"/>
</g><g transform="translate(0 1)">
  
  <ellipse cx="32" cy="40" rx="13" ry="8" fill="#655b4c"/>
  <ellipse cx="32" cy="39" rx="9" ry="5" fill="#6c6253"/>
  <g fill="#324a6e">
    <rect x="6" y="18" width="52" height="2"/><rect x="6" y="24" width="52" height="2"/>
    <rect x="6" y="52" width="52" height="2"/><rect x="6" y="58" width="52" height="2"/>
    <rect x="7" y="18" width="2" height="42"/><rect x="55" y="18" width="2" height="42"/>
  </g>
  <g fill="#1d3458">
    <rect x="5" y="14" width="4" height="14"/><rect x="18" y="14" width="4" height="14"/><rect x="30" y="14" width="4" height="14"/>
    <rect x="42" y="14" width="4" height="14"/><rect x="55" y="14" width="4" height="14"/>
    <rect x="5" y="48" width="4" height="14"/><rect x="18" y="48" width="4" height="14"/><rect x="30" y="48" width="4" height="14"/>
    <rect x="42" y="48" width="4" height="14"/><rect x="55" y="48" width="4" height="14"/>
    <rect x="5" y="31" width="4" height="12"/><rect x="55" y="31" width="4" height="12"/>
  </g>
  <rect x="20" y="3" width="24" height="11" fill="#351d15"/>
  <rect x="21" y="4" width="22" height="9" fill="#716b65"/>
  <rect x="28" y="6" width="6" height="5" fill="#24431f"/>
  <rect x="34" y="7" width="2" height="3" fill="#335027"/>
  <rect x="27" y="6" width="1" height="1" fill="#24431f"/><rect x="27" y="10" width="1" height="1" fill="#24431f"/>
</g></g>
  <g id="art" data-size="64 64" data-box="0 0 64 64">
  <!-- Placeholder turtle protection area: recycled-plastic fence, nest mound, sign -->
  <ellipse cx="32" cy="40" rx="13" ry="8" fill="#cdbf9c"/>
  <ellipse cx="32" cy="39" rx="9" ry="5" fill="#ddd0ae"/>
  <g fill="#7fa3c8">
    <rect x="6" y="18" width="52" height="2"/><rect x="6" y="24" width="52" height="2"/>
    <rect x="6" y="52" width="52" height="2"/><rect x="6" y="58" width="52" height="2"/>
    <rect x="7" y="18" width="2" height="42"/><rect x="55" y="18" width="2" height="42"/>
  </g>
  <g fill="#4d6f94">
    <rect x="5" y="14" width="4" height="14"/><rect x="18" y="14" width="4" height="14"/><rect x="30" y="14" width="4" height="14"/>
    <rect x="42" y="14" width="4" height="14"/><rect x="55" y="14" width="4" height="14"/>
    <rect x="5" y="48" width="4" height="14"/><rect x="18" y="48" width="4" height="14"/><rect x="30" y="48" width="4" height="14"/>
    <rect x="42" y="48" width="4" height="14"/><rect x="55" y="48" width="4" height="14"/>
    <rect x="5" y="31" width="4" height="12"/><rect x="55" y="31" width="4" height="12"/>
  </g>
  <rect x="20" y="3" width="24" height="11" fill="#5a3a22"/>
  <rect x="21" y="4" width="22" height="9" fill="#e8e2d0"/>
  <rect x="28" y="6" width="6" height="5" fill="#4f7a3a"/>
  <rect x="34" y="7" width="2" height="3" fill="#6f9a4f"/>
  <rect x="27" y="6" width="1" height="1" fill="#4f7a3a"/><rect x="27" y="10" width="1" height="1" fill="#4f7a3a"/>
</g>
</svg>
